<svg xmlns="http://www.w3.org/2000/svg" xml:space="preserve" style="enable-background:new 0 0 489.292 489.292" viewBox="0 0 489.292 489.292"><path d="M481.646 162.772c0-73.89-59.9-133.79-133.79-133.79-43.264 0-80.821 19.594-105.276 51.449-23.692-31.796-62.265-51.449-104.965-51.449C65.834 28.982 7.646 87.17 7.646 158.95c0 30.039 5.822 62.087 22.936 84.097L244.646 458.23 443.42 258.337c24.392-24.235 38.226-58.464 38.226-95.565z" style="fill:#f7931e"/><path d="M244.646 82.498s116.976 84.125 2.239 373.48L22.476 229.99l-14.83-65.396 20.421-77.871L83.4 40.056l60.977-12.193 69.689 24.054 30.58 30.581z" style="fill:#fbb03b"/><path d="M246.885 455.978 22.476 229.99l-7.185-33.791 244.925 246.426z" style="fill:#fff"/><path d="M244.645 469.074 48.201 271.479C17.566 242.97 0 204.022 0 164.594 0 84.985 64.768 20.217 144.377 20.217c36.431 0 72.554 15.32 100.269 42.286 27.716-26.966 63.84-42.286 100.27-42.286 79.609 0 144.376 64.768 144.376 144.377 0 39.428-17.566 78.377-48.2 106.885L244.645 469.074zM144.377 35.508c-71.179 0-129.086 57.907-129.086 129.086 0 34.721 16.234 70.528 43.429 95.786l.219.211 185.707 186.795 185.815-186.902.111-.104C457.766 235.124 474 199.316 474 164.594c0-71.179-57.907-129.086-129.085-129.086-34.701 0-69.206 15.722-94.668 43.135l-5.602 6.03-5.602-6.03c-25.46-27.413-59.965-43.135-94.666-43.135z" style="fill:#1d1d1b"/><path d="M286.694 294.433h15.291v118.93h-15.291z" style="fill:#1d1d1b" transform="rotate(-134.999 294.34 353.9)"/></svg>